<svg width="34" height="26" viewBox="0 0 34 26" fill="none" xmlns="http://www.w3.org/2000/svg">
<path d="M26.8125 15.3359L29.1992 4.77344C29.3516 4.01172 28.793 3.25 27.9805 3.25H8.07422L7.61719 1.01562C7.46484 0.457031 6.95703 0 6.39844 0H1.21875C0.507812 0 0 0.558594 0 1.21875V2.03125C0 2.74219 0.507812 3.25 1.21875 3.25H4.72266L8.32812 20.7188C7.46484 21.2266 6.90625 22.1406 6.90625 23.1562C6.90625 24.7305 8.17578 26 9.75 26C11.2734 26 12.5938 24.7305 12.5938 23.1562C12.5938 22.3945 12.2383 21.6836 11.7305 21.125H22.3438C21.8359 21.6836 21.5312 22.3945 21.5312 23.1562C21.5312 24.7305 22.8008 26 24.375 26C25.8984 26 27.2188 24.7305 27.2188 23.1562C27.2188 22.0391 26.5586 21.0742 25.5938 20.6172L25.8477 19.3984C26.0508 18.6367 25.4414 17.875 24.6797 17.875H11.0703L10.7148 16.25H25.5938C26.1523 16.25 26.6602 15.8945 26.8125 15.3359Z" fill="#FFC725"/>
<circle cx="25.5" cy="17.25" r="8.5" fill="#F37335"/>
<path d="M24.639 16.7635C24.847 16.7202 25.0463 16.6898 25.237 16.6725C25.4277 16.6508 25.6118 16.64 25.7895 16.64C26.2835 16.64 26.719 16.7137 27.096 16.861C27.473 17.0083 27.7893 17.212 28.045 17.472C28.3007 17.732 28.4935 18.0375 28.6235 18.3885C28.7535 18.7352 28.8185 19.11 28.8185 19.513C28.8185 20.0113 28.7297 20.4663 28.552 20.878C28.3787 21.2897 28.136 21.6428 27.824 21.9375C27.512 22.2278 27.1415 22.4532 26.7125 22.6135C26.2878 22.7738 25.8242 22.854 25.3215 22.854C25.0268 22.854 24.7473 22.8237 24.483 22.763C24.2187 22.7023 23.9695 22.6222 23.7355 22.5225C23.5058 22.4185 23.2913 22.3015 23.092 22.1715C22.897 22.0372 22.7215 21.8963 22.5655 21.749L23.0595 21.0665C23.1635 20.9192 23.3 20.8455 23.469 20.8455C23.5773 20.8455 23.6878 20.8802 23.8005 20.9495C23.9132 21.0188 24.041 21.0947 24.184 21.177C24.3313 21.2593 24.5025 21.3352 24.6975 21.4045C24.8968 21.4738 25.1352 21.5085 25.4125 21.5085C25.7072 21.5085 25.9672 21.4608 26.1925 21.3655C26.4178 21.2702 26.6042 21.138 26.7515 20.969C26.9032 20.7957 27.0158 20.592 27.0895 20.358C27.1675 20.1197 27.2065 19.8618 27.2065 19.5845C27.2065 19.0732 27.057 18.6745 26.758 18.3885C26.4633 18.0982 26.0257 17.953 25.445 17.953C24.9987 17.953 24.5415 18.0353 24.0735 18.2L23.0725 17.914L23.8525 13.351H28.4935V14.0335C28.4935 14.2632 28.422 14.4495 28.279 14.5925C28.136 14.7355 27.8933 14.807 27.551 14.807H24.9705L24.639 16.7635Z" fill="white"/>
</svg>
